<?xml version="1.0" encoding="utf-8"?>
<!-- Generator: Adobe Illustrator 26.0.2, SVG Export Plug-In . SVG Version: 6.00 Build 0)  -->
<svg version="1.1" id="Layer_1" xmlns="http://www.w3.org/2000/svg" xmlns:xlink="http://www.w3.org/1999/xlink" x="0px" y="0px"
	 width="400" height="60" viewBox="0 0 400 60" style="enable-background:new 0 0 200 23;" xml:space="preserve">
<style type="text/css">
	.st0{fill:#559232;}
</style>
<g>
	<path class="st0" d="M16.42,13.31c0-1.58,1.3-2.88,2.81-2.88c1.58,0,2.88,1.3,2.88,2.88v45.36c0,1.58-1.3,2.88-2.88,2.88
		c-1.51,0-2.81-1.3-2.81-2.88V13.31z"/>
	<path class="st0" d="M35.93,26.42c0-1.51,1.22-2.81,2.74-2.81c1.58,0,2.81,1.22,2.81,2.81v4.03c2.45-4.03,6.34-7.27,12.75-7.27
		c9,0,14.26,6.05,14.26,14.91v20.67c0,1.58-1.22,2.81-2.74,2.81c-1.58,0-2.81-1.22-2.81-2.81v-19.3c0-6.91-3.74-11.23-10.3-11.23
		c-6.41,0-11.16,4.68-11.16,11.67v18.87c0,1.58-1.15,2.81-2.74,2.81c-1.58,0-2.81-1.22-2.81-2.81V26.42z"/>
	<path class="st0" d="M94.04,61.78h-0.29c-1.51,0-2.52-0.94-3.17-2.38L76.61,27.86c-0.14-0.5-0.36-1.01-0.36-1.51
		c0-1.44,1.22-2.74,2.81-2.74c1.58,0,2.38,0.94,2.81,2.16L93.9,54.86l12.24-29.23c0.36-1.08,1.15-2.02,2.59-2.02
		c1.51,0,2.74,1.22,2.74,2.74c0,0.5-0.14,1.01-0.29,1.37L97.14,59.4C96.49,60.84,95.55,61.78,94.04,61.78z"/>
	<path class="st0" d="M135.51,62.06c-10.22,0-18.58-7.85-18.58-19.37v-0.14c0-10.73,7.56-19.37,17.86-19.37
		c11.02,0,17.28,9,17.28,18.87c0,1.51-1.22,2.59-2.59,2.59h-26.93c0.79,8.06,6.48,12.6,13.1,12.6c4.61,0,7.99-1.8,10.73-4.32
		c0.43-0.36,0.94-0.65,1.58-0.65c1.37,0,2.45,1.08,2.45,2.38c0,0.65-0.29,1.3-0.86,1.8C146.03,59.83,141.85,62.06,135.51,62.06z
		 M146.53,40.53c-0.58-6.77-4.46-12.67-11.88-12.67c-6.48,0-11.38,5.4-12.1,12.67H146.53z"/>
	<path class="st0" d="M159.85,57.24c-0.5-0.36-1.01-1.08-1.01-2.02c0-1.3,1.08-2.38,2.45-2.38c0.5,0,1.01,0.14,1.37,0.43
		c3.82,2.59,7.78,3.96,11.81,3.96c4.46,0,7.71-2.3,7.71-5.9v-0.14c0-3.74-4.39-5.18-9.29-6.55c-5.83-1.66-12.31-3.67-12.31-10.51
		v-0.14c0-6.41,5.33-10.66,12.67-10.66c3.96,0,8.28,1.22,11.88,3.17c0.72,0.43,1.37,1.22,1.37,2.3c0,1.3-1.08,2.38-2.45,2.38
		c-0.5,0-0.94-0.14-1.22-0.29c-3.17-1.8-6.55-2.88-9.72-2.88c-4.39,0-7.2,2.3-7.2,5.4v0.14c0,3.53,4.61,4.9,9.58,6.41
		c5.76,1.73,11.95,3.96,11.95,10.66v0.14c0,7.06-5.83,11.16-13.25,11.16C169.28,61.92,163.88,60.12,159.85,57.24z"/>
	<path class="st0" d="M198.94,51.33V28.87h-3.02c-1.3,0-2.45-1.15-2.45-2.45c0-1.37,1.15-2.45,2.45-2.45h3.02v-8.79
		c0-1.51,1.15-2.81,2.74-2.81c1.51,0,2.81,1.3,2.81,2.81v8.79h9.65c1.37,0,2.52,1.15,2.52,2.45c0,1.37-1.15,2.45-2.52,2.45h-9.65
		v21.75c0,4.54,2.52,6.19,6.26,6.19c1.94,0,2.95-0.5,3.38-0.5c1.3,0,2.38,1.08,2.38,2.38c0,1.01-0.65,1.8-1.58,2.16
		c-1.58,0.65-3.31,1.01-5.47,1.01C203.48,61.85,198.94,58.9,198.94,51.33z"/>
	<path class="st0" d="M224.79,36.14V36c0-14.26,10.66-26.07,25.49-26.07c8.14,0,13.32,2.66,18,6.55c0.58,0.5,1.15,1.3,1.15,2.3
		c0,1.51-1.37,2.81-2.88,2.81c-0.79,0-1.44-0.36-1.87-0.65c-3.89-3.46-8.28-5.76-14.47-5.76c-11.16,0-19.51,9.07-19.51,20.67V36
		c0,11.67,8.42,20.81,19.51,20.81c6.26,0,10.66-2.16,14.98-6.12c0.43-0.43,1.08-0.79,1.8-0.79c1.44,0,2.74,1.3,2.74,2.74
		c0,0.86-0.43,1.58-0.94,2.02c-4.97,4.54-10.44,7.42-18.72,7.42C235.52,62.06,224.79,50.61,224.79,36.14z"/>
	<path class="st0" d="M276.2,42.77v-0.14c0-10.51,8.21-19.44,19.44-19.44c11.16,0,19.37,8.78,19.37,19.3v0.14
		c0,10.51-8.28,19.44-19.51,19.44C284.33,62.06,276.2,53.28,276.2,42.77z M309.32,42.77v-0.14c0-7.99-5.98-14.55-13.83-14.55
		c-8.06,0-13.61,6.55-13.61,14.4v0.14c0,7.99,5.9,14.47,13.75,14.47C303.7,57.09,309.32,50.61,309.32,42.77z"/>
	<path class="st0" d="M325.01,26.42c0-1.51,1.22-2.81,2.74-2.81c1.58,0,2.81,1.22,2.81,2.81v4.03c2.45-4.03,6.34-7.27,12.75-7.27
		c9,0,14.26,6.05,14.26,14.91v20.67c0,1.58-1.22,2.81-2.74,2.81c-1.58,0-2.81-1.22-2.81-2.81v-19.3c0-6.91-3.75-11.23-10.3-11.23
		c-6.41,0-11.16,4.68-11.16,11.67v18.87c0,1.58-1.15,2.81-2.74,2.81s-2.81-1.22-2.81-2.81V26.42z"/>
	<path class="st0" d="M367.35,57.24c-0.5-0.36-1.01-1.08-1.01-2.02c0-1.3,1.08-2.38,2.45-2.38c0.5,0,1.01,0.14,1.37,0.43
		c3.82,2.59,7.78,3.96,11.81,3.96c4.46,0,7.7-2.3,7.7-5.9v-0.14c0-3.74-4.39-5.18-9.29-6.55c-5.83-1.66-12.31-3.67-12.31-10.51
		v-0.14c0-6.41,5.33-10.66,12.67-10.66c3.96,0,8.28,1.22,11.88,3.17c0.72,0.43,1.37,1.22,1.37,2.3c0,1.3-1.08,2.38-2.45,2.38
		c-0.5,0-0.94-0.14-1.22-0.29c-3.17-1.8-6.55-2.88-9.72-2.88c-4.39,0-7.2,2.3-7.2,5.4v0.14c0,3.53,4.61,4.9,9.58,6.41
		c5.76,1.73,11.95,3.96,11.95,10.66v0.14c0,7.06-5.83,11.16-13.25,11.16C376.78,61.92,371.38,60.12,367.35,57.24z"/>
	<path class="st0" d="M421.49,62.06c-10.22,0-18.58-7.85-18.58-19.37v-0.14c0-10.73,7.56-19.37,17.86-19.37
		c11.02,0,17.28,9,17.28,18.87c0,1.51-1.22,2.59-2.59,2.59h-26.93c0.79,8.06,6.48,12.6,13.11,12.6c4.61,0,7.99-1.8,10.73-4.32
		c0.43-0.36,0.94-0.65,1.58-0.65c1.37,0,2.45,1.08,2.45,2.38c0,0.65-0.29,1.3-0.86,1.8C432.01,59.83,427.83,62.06,421.49,62.06z
		 M432.51,40.53c-0.58-6.77-4.46-12.67-11.88-12.67c-6.48,0-11.38,5.4-12.1,12.67H432.51z"/>
	<path class="st0" d="M447.84,26.42c0-1.51,1.22-2.81,2.74-2.81c1.58,0,2.81,1.22,2.81,2.81v6.98c2.74-6.19,8.14-9.94,12.82-9.94
		c1.66,0,2.74,1.22,2.74,2.81c0,1.51-1.01,2.59-2.45,2.81c-7.2,0.86-13.1,6.26-13.1,16.99v12.67c0,1.51-1.15,2.81-2.74,2.81
		s-2.81-1.22-2.81-2.81V26.42z"/>
	<path class="st0" d="M491.98,61.78h-0.29c-1.51,0-2.52-0.94-3.17-2.38l-13.97-31.54c-0.14-0.5-0.36-1.01-0.36-1.51
		c0-1.44,1.22-2.74,2.81-2.74s2.38,0.94,2.81,2.16l12.02,29.09l12.24-29.23c0.36-1.08,1.15-2.02,2.59-2.02
		c1.51,0,2.74,1.22,2.74,2.74c0,0.5-0.14,1.01-0.29,1.37L495.08,59.4C494.43,60.84,493.49,61.78,491.98,61.78z"/>
	<path class="st0" d="M514.73,50.4v-0.14c0-7.85,6.48-12.03,15.91-12.03c4.75,0,8.14,0.65,11.45,1.58v-1.3
		c0-6.7-4.1-10.15-11.09-10.15c-3.74,0-6.91,0.86-9.65,2.09c-0.36,0.14-0.72,0.22-1.01,0.22c-1.3,0-2.45-1.08-2.45-2.38
		c0-1.15,0.79-2.02,1.51-2.3c3.67-1.58,7.42-2.52,12.17-2.52c5.26,0,9.29,1.37,12.03,4.1c2.52,2.52,3.82,6.12,3.82,10.87v20.38
		c0,1.58-1.15,2.74-2.66,2.74c-1.58,0-2.66-1.15-2.66-2.59v-3.38c-2.59,3.38-6.91,6.41-13.47,6.41
		C521.72,61.99,514.73,58.03,514.73,50.4z M542.17,47.52v-3.6c-2.74-0.79-6.41-1.58-10.94-1.58c-6.99,0-10.87,3.02-10.87,7.7v0.14
		c0,4.68,4.32,7.42,9.36,7.42C536.55,57.6,542.17,53.42,542.17,47.52z"/>
	<path class="st0" d="M560.81,51.33V28.87h-3.02c-1.3,0-2.45-1.15-2.45-2.45c0-1.37,1.15-2.45,2.45-2.45h3.02v-8.79
		c0-1.51,1.15-2.81,2.74-2.81c1.51,0,2.81,1.3,2.81,2.81v8.79h9.65c1.37,0,2.52,1.15,2.52,2.45c0,1.37-1.15,2.45-2.52,2.45h-9.65
		v21.75c0,4.54,2.52,6.19,6.26,6.19c1.94,0,2.95-0.5,3.38-0.5c1.3,0,2.38,1.08,2.38,2.38c0,1.01-0.65,1.8-1.58,2.16
		c-1.58,0.65-3.31,1.01-5.47,1.01C565.35,61.85,560.81,58.9,560.81,51.33z"/>
	<path class="st0" d="M587.96,12.31c0-1.8,1.44-2.95,3.24-2.95c1.87,0,3.31,1.15,3.31,2.95v0.94c0,1.73-1.44,2.95-3.31,2.95
		c-1.8,0-3.24-1.22-3.24-2.95V12.31z M588.46,26.42c0-1.51,1.22-2.81,2.74-2.81c1.58,0,2.81,1.22,2.81,2.81v32.33
		c0,1.58-1.15,2.81-2.74,2.81s-2.81-1.22-2.81-2.81V26.42z"/>
	<path class="st0" d="M604.59,42.77v-0.14c0-10.51,8.21-19.44,19.44-19.44c11.16,0,19.37,8.78,19.37,19.3v0.14
		c0,10.51-8.28,19.44-19.51,19.44C612.72,62.06,604.59,53.28,604.59,42.77z M637.71,42.77v-0.14c0-7.99-5.98-14.55-13.83-14.55
		c-8.06,0-13.61,6.55-13.61,14.4v0.14c0,7.99,5.9,14.47,13.75,14.47C632.09,57.09,637.71,50.61,637.71,42.77z"/>
	<path class="st0" d="M653.4,26.42c0-1.51,1.22-2.81,2.74-2.81c1.58,0,2.81,1.22,2.81,2.81v4.03c2.45-4.03,6.34-7.27,12.75-7.27
		c9,0,14.26,6.05,14.26,14.91v20.67c0,1.58-1.22,2.81-2.74,2.81c-1.58,0-2.81-1.22-2.81-2.81v-19.3c0-6.91-3.75-11.23-10.3-11.23
		c-6.41,0-11.16,4.68-11.16,11.67v18.87c0,1.58-1.15,2.81-2.74,2.81s-2.81-1.22-2.81-2.81V26.42z"/>
</g>
</svg>
